<svg height="19" width="21" xmlns="http://www.w3.org/2000/svg"><path d="m15.104.618c1.049.156 2.086.216 3.09.426 1.054.203 1.848.828 2.218 1.8.225.601.196 1.235.223 1.911.04 2.13-.34 4.168-1.354 6.094-.385.68-.933 1.285-1.48 1.89-.498.598-.996 1.196-1.6 1.759a23.857 23.857 0 0 1 -2.05 1.866c-.944.753-1.944 1.464-2.887 2.217-.52.406-.959.172-1.297-.075-.783-.53-1.475-1.168-2.213-1.752-.569-.46-1.194-.962-1.712-1.428a110.028 110.028 0 0 1 -2.652-2.423c-1.047-1.03-1.947-2.126-2.373-3.575-.41-1.305-.56-2.596-.405-3.926.218-1.677 1.99-2.828 3.755-2.28.586.167 1.268.273 1.855.44 1.443.444 2.705 1.105 3.48 2.46 1.172-2.334 2.924-4.113 5.311-5.295-.01-.095.04-.102.09-.109z" fill="#ff596f"/></svg>